<?xml version="1.0" encoding="UTF-8"?>
<svg xmlns="http://www.w3.org/2000/svg" style="display: none;">
  <symbol id="discourse-cards" viewBox="0 0 512 512">
    <g>
      <g id="Layer_1">
        <path d="M0,96C0,60.7,28.7,32,64,32h384c35.3,0,64,28.7,64,64v320c0,35.3-28.7,64-64,64H64c-35.3,0-64-28.7-64-64V96ZM448,96H64v132h384V96ZM448,289H64v127h384v-127Z"/>
      </g>
    </g>
  </symbol>

  <symbol id="discourse-table" viewBox="0 0 512 512">
    <g>
      <g id="Layer_1">
        <path d="M0,96C0,60.7,28.7,32,64,32h384c35.3,0,64,28.7,64,64v320c0,35.3-28.7,64-64,64H64c-35.3,0-64-28.7-64-64V96ZM448,96H64v64h384v-64ZM448,224H64v64h384v-64ZM448,352H64v64h384v-64Z"/>
      </g>
    </g>
  </symbol>

  <symbol id="discourse-table-excerpt" viewBox="0 0 512 512">
    <path d="M428.36 318.07a9.36 9.36 0 0 1-9.36 9.36H70.56a9.36 9.36 0 0 1-9.36-9.36V275.6a9.36 9.36 0 0 1 9.36-9.36h82.63c8.21 0 12.42-9.79 6.81-15.78-8.37-8.94-16.01-18.51-22.84-28.61s-19.19-16.8-31.95-16.8H70.57a9.36 9.36 0 0 1-9.36-9.36v-42.47a9.36 9.36 0 0 1 9.36-9.36h21.97c5.79 0 10.15-5.2 9.23-10.92-1.84-11.43-2.8-23.13-2.8-35.05 0-1.87.03-3.74.08-5.6.14-5.27-4.08-9.62-9.35-9.62H70.58C31.61 82.67.02 114.26.02 153.23v287.24c0 38.97 31.59 70.56 70.56 70.56h348.44c38.97 0 70.56-31.59 70.56-70.56v-144.3c0-7.41-8.19-11.87-14.43-7.87a245.901 245.901 0 0 1-40.88 21.1 9.376 9.376 0 0 0-5.89 8.69ZM419 449.82H70.56a9.36 9.36 0 0 1-9.36-9.36v-42.47a9.36 9.36 0 0 1 9.36-9.36H419a9.36 9.36 0 0 1 9.36 9.36v42.47a9.36 9.36 0 0 1-9.36 9.36Z"/><path d="M512 152.5c0 50.55-40.95 91.5-91.5 91.5h-6.1c-13.5 0-24.4-10.9-24.4-24.4s10.9-24.4 24.4-24.4h6.1c23.56 0 42.7-19.14 42.7-42.7v-6.1h-48.8c-26.92 0-48.8-21.88-48.8-48.8V48.8c0-26.92 21.88-48.8 48.8-48.8h48.8C490.12 0 512 21.88 512 48.8v103.7Zm-195.2 0c0 50.55-40.95 91.5-91.5 91.5h-6.1c-13.5 0-24.4-10.9-24.4-24.4s10.9-24.4 24.4-24.4h6.1c23.56 0 42.7-19.14 42.7-42.7v-6.1h-48.8c-26.92 0-48.8-21.88-48.8-48.8V48.8c0-26.92 21.88-48.8 48.8-48.8H268c26.92 0 48.8 21.88 48.8 48.8v103.7Z"/>
  </symbol>

  <symbol id="discourse-table-sparkles" viewBox="0 0 512 512">
   <path d="M216.69 136.36c-7.2 2.72-12 9.6-12 17.29s4.8 14.57 12 17.29l90.43 33.93 33.93 90.43c2.72 7.2 9.6 12 17.29 12s14.57-4.8 17.29-12l33.93-90.43 90.43-33.93c7.2-2.72 12-9.6 12-17.29s-4.8-14.57-12-17.29l-90.43-33.93L375.63 12c-2.72-7.2-9.6-12-17.29-12s-14.57 4.8-17.29 12l-33.93 90.43-90.43 33.93Z"/><path d="m470.62 331-6.76.03c-1.96 0-3.89.51-5.63 1.42-31.37 16.52-67.95 26-107.01 26s-76.45-9.7-108.05-26.56c-1.59-.85-3.36-1.32-5.16-1.34L61.2 328.41v-61.18h97.66c4.96 0 8.04-5.38 5.53-9.66-7.88-13.4-14-27.76-18.09-42.83-1.39-5.13-6.02-8.7-11.34-8.7H61.2v-61.18h75.41c2.34 0 4.5-.96 6.05-2.52 2.79-16.76 8.06-32.8 15.46-47.81 2.47-5-1.16-10.86-6.74-10.86H61.2c-33.8 0-61.2 27.4-61.2 61.2v305.96c0 33.8 27.4 61.2 61.2 61.2h367.15c33.8 0 61.2-27.4 61.2-61.2V349.86c0-10.45-8.49-18.9-18.93-18.86ZM61.2 450.8v-61.18h367.15v61.18H61.2Z"/>
  </symbol>
</svg>
