<?xml version="1.0" encoding="UTF-8"?>

<svg xmlns="http://www.w3.org/2000/svg" style="display: none;">
<symbol id="discourse-cards" viewBox="0 0 512 512">
  <g>
    <g id="Layer_1">
      <path d="M0,96C0,60.7,28.7,32,64,32h384c35.3,0,64,28.7,64,64v320c0,35.3-28.7,64-64,64H64c-35.3,0-64-28.7-64-64V96ZM448,96H64v132h384V96ZM448,289H64v127h384v-127Z"/>
    </g>
  </g>
</symbol>

<symbol id="discourse-table" viewBox="0 0 512 512">
  <g>
    <g id="Layer_1">
      <path d="M0,96C0,60.7,28.7,32,64,32h384c35.3,0,64,28.7,64,64v320c0,35.3-28.7,64-64,64H64c-35.3,0-64-28.7-64-64V96ZM448,96H64v64h384v-64ZM448,224H64v64h384v-64ZM448,352H64v64h384v-64Z"/>
    </g>
  </g>
</symbol>

<symbol id="discourse-table-sparkles" viewBox="0 0 512 512">
  <g>
    <g id="Layer_1">
      <path d="M464.3,124l-26.3,70.2c-2.1,5.6-7.5,9.3-13.4,9.3s-11.3-3.7-13.4-9.3l-12.9-34.3H64v-64h247.4c-3.8-2.6-6.1-7-6.1-11.7s3.7-11.3,9.3-13.4l70.2-26.3,4.7-12.5H64C28.7,32,0,60.7,0,96v320c0,35.3,28.7,64,64,64h384c35.3,0,64-28.7,64-64V106.1l-47.7,17.9ZM448,416H64v-64h384v64ZM448,288H64v-64h384v64Z"/>
      <path d="M360.1,79.5c-3.2,1.2-5.4,4.3-5.4,7.8s2.2,6.6,5.4,7.8l40.7,15.3,15.3,40.7c1.2,3.2,4.3,5.4,7.8,5.4s6.6-2.2,7.8-5.4l15.3-40.7,40.7-15.3c3.2-1.2,5.4-4.3,5.4-7.8s-2.2-6.6-5.4-7.8l-40.7-15.3-15.3-40.7c-1.2-3.2-4.3-5.4-7.8-5.4s-6.6,2.2-7.8,5.4l-15.3,40.7-40.7,15.3Z"/>
      <path d="M458.6,28c-1.1.4-1.9,1.5-1.9,2.7s.7,2.3,1.9,2.7l14.1,5.3,5.3,14.1c.4,1.1,1.5,1.9,2.7,1.9s2.3-.7,2.7-1.9l5.3-14.1,14.1-5.3c1.1-.4,1.9-1.5,1.9-2.7s-.7-2.3-1.9-2.7l-14.1-5.3-5.3-14.1c-.4-1.1-1.5-1.9-2.7-1.9s-2.3.7-2.7,1.9l-5.3,14.1-14.1,5.3Z"/>
    </g>
  </g>
</symbol>

</svg>